<svg width="2000" height="1929" viewBox="0 0 2000 1929" fill="none" xmlns="http://www.w3.org/2000/svg">
<rect width="2000" height="1929" fill="#1E1E1E"/>
<g id="Untitled-3 1" clip-path="url(#clip0_0_1)">
<g id="NAMMA">
<g id="Mask group">
<mask id="mask0_0_1" style="mask-type:luminance" maskUnits="userSpaceOnUse" x="195" y="826" width="1616" height="267">
<g id="Group">
<path id="Vector" d="M1811 826H195V1093H1811V826Z" fill="white"/>
<path id="Vector_2" d="M414.032 832.455V1087H367.548L256.805 926.79H254.941V1087H201.124V832.455H248.354L358.226 992.54H360.463V832.455H414.032ZM554.871 1087H497.2L585.073 832.455H654.427L742.176 1087H684.505L620.745 890.622H618.756L554.871 1087ZM551.267 986.947H687.488V1028.96H551.267V986.947ZM825.313 832.455H891.684L961.783 1003.48H964.766L1034.87 832.455H1101.24V1087H1049.03V921.322H1046.92L981.048 1085.76H945.501L879.628 920.7H877.515V1087H825.313V832.455ZM1198.08 832.455H1264.45L1334.55 1003.48H1337.53L1407.63 832.455H1474V1087H1421.8V921.322H1419.69L1353.81 1085.76H1318.26L1252.39 920.7H1250.28V1087H1198.08V832.455ZM1614.71 1087H1557.04L1644.92 832.455H1714.27L1802.02 1087H1744.35L1680.59 890.622H1678.6L1614.71 1087ZM1611.11 986.947H1747.33V1028.96H1611.11V986.947Z" fill="black"/>
</g>
</mask>
<g mask="url(#mask0_0_1)">
<path id="Vector_3" d="M414.032 832.455H420.032V826.455H414.032V832.455ZM414.032 1087V1093H420.032V1087H414.032ZM367.548 1087L362.612 1090.41L364.401 1093H367.548V1087ZM256.805 926.79L261.741 923.379L259.952 920.79H256.805V926.79ZM254.941 926.79V920.79H248.941V926.79H254.941ZM254.941 1087V1093H260.941V1087H254.941ZM201.124 1087H195.124V1093H201.124V1087ZM201.124 832.455V826.455H195.124V832.455H201.124ZM248.354 832.455L253.301 829.059L251.513 826.455H248.354V832.455ZM358.226 992.54L353.279 995.935L355.067 998.54H358.226V992.54ZM360.463 992.54V998.54H366.463V992.54H360.463ZM360.463 832.455V826.455H354.463V832.455H360.463ZM414.032 832.455H408.032V1087H414.032H420.032V832.455H414.032ZM414.032 1087V1081H367.548V1087V1093H414.032V1087ZM367.548 1087L372.483 1083.59L261.741 923.379L256.805 926.79L251.87 930.202L362.612 1090.41L367.548 1087ZM256.805 926.79V920.79H254.941V926.79V932.79H256.805V926.79ZM254.941 926.79H248.941V1087H254.941H260.941V926.79H254.941ZM254.941 1087V1081H201.124V1087V1093H254.941V1087ZM201.124 1087H207.124V832.455H201.124H195.124V1087H201.124ZM201.124 832.455V838.455H248.354V832.455V826.455H201.124V832.455ZM248.354 832.455L243.407 835.85L353.279 995.935L358.226 992.54L363.173 989.145L253.301 829.059L248.354 832.455ZM358.226 992.54V998.54H360.463V992.54V986.54H358.226V992.54ZM360.463 992.54H366.463V832.455H360.463H354.463V992.54H360.463ZM360.463 832.455V838.455H414.032V832.455V826.455H360.463V832.455ZM554.871 1087V1093H559.229L560.577 1088.86L554.871 1087ZM497.2 1087L491.529 1085.04L488.782 1093H497.2V1087ZM585.073 832.455V826.455H580.797L579.402 830.497L585.073 832.455ZM654.427 832.455L660.099 830.499L658.705 826.455H654.427V832.455ZM742.176 1087V1093H750.59L747.848 1085.04L742.176 1087ZM684.505 1087L678.798 1088.85L680.145 1093H684.505V1087ZM620.745 890.622L626.451 888.769L625.105 884.622H620.745V890.622ZM618.756 890.622V884.622H614.398L613.05 888.766L618.756 890.622ZM551.267 986.947V980.947H545.267V986.947H551.267ZM687.488 986.947H693.488V980.947H687.488V986.947ZM687.488 1028.96V1034.96H693.488V1028.96H687.488ZM551.267 1028.96H545.267V1034.96H551.267V1028.96ZM554.871 1087V1081H497.2V1087V1093H554.871V1087ZM497.2 1087L502.872 1088.96L590.745 834.412L585.073 832.455L579.402 830.497L491.529 1085.04L497.2 1087ZM585.073 832.455V838.455H654.427V832.455V826.455H585.073V832.455ZM654.427 832.455L648.755 834.41L736.503 1088.96L742.176 1087L747.848 1085.04L660.099 830.499L654.427 832.455ZM742.176 1087V1081H684.505V1087V1093H742.176V1087ZM684.505 1087L690.212 1085.15L626.451 888.769L620.745 890.622L615.038 892.475L678.798 1088.85L684.505 1087ZM620.745 890.622V884.622H618.756V890.622V896.622H620.745V890.622ZM618.756 890.622L613.05 888.766L549.165 1085.14L554.871 1087L560.577 1088.86L624.462 892.478L618.756 890.622ZM551.267 986.947V992.947H687.488V986.947V980.947H551.267V986.947ZM687.488 986.947H681.488V1028.96H687.488H693.488V986.947H687.488ZM687.488 1028.96V1022.96H551.267V1028.96V1034.96H687.488V1028.96ZM551.267 1028.96H557.267V986.947H551.267H545.267V1028.96H551.267ZM825.313 832.455V826.455H819.313V832.455H825.313ZM891.684 832.455L897.236 830.179L895.709 826.455H891.684V832.455ZM961.783 1003.48L956.231 1005.75L957.758 1009.48H961.783V1003.48ZM964.766 1003.48V1009.48H968.791L970.318 1005.75L964.766 1003.48ZM1034.87 832.455V826.455H1030.84L1029.31 830.179L1034.87 832.455ZM1101.24 832.455H1107.24V826.455H1101.24V832.455ZM1101.24 1087V1093H1107.24V1087H1101.24ZM1049.03 1087H1043.03V1093H1049.03V1087ZM1049.03 921.322H1055.03V915.322H1049.03V921.322ZM1046.92 921.322V915.322H1042.86L1041.35 919.09L1046.92 921.322ZM981.048 1085.76V1091.76H985.108L986.618 1087.99L981.048 1085.76ZM945.501 1085.76L939.929 1087.98L941.436 1091.76H945.501V1085.76ZM879.628 920.7L885.2 918.476L883.693 914.7H879.628V920.7ZM877.515 920.7V914.7H871.515V920.7H877.515ZM877.515 1087V1093H883.515V1087H877.515ZM825.313 1087H819.313V1093H825.313V1087ZM825.313 832.455V838.455H891.684V832.455V826.455H825.313V832.455ZM891.684 832.455L886.132 834.73L956.231 1005.75L961.783 1003.48L967.335 1001.2L897.236 830.179L891.684 832.455ZM961.783 1003.48V1009.48H964.766V1003.48V997.477H961.783V1003.48ZM964.766 1003.48L970.318 1005.75L1040.42 834.73L1034.87 832.455L1029.31 830.179L959.214 1001.2L964.766 1003.48ZM1034.87 832.455V838.455H1101.24V832.455V826.455H1034.87V832.455ZM1101.24 832.455H1095.24V1087H1101.24H1107.24V832.455H1101.24ZM1101.24 1087V1081H1049.03V1087V1093H1101.24V1087ZM1049.03 1087H1055.03V921.322H1049.03H1043.03V1087H1049.03ZM1049.03 921.322V915.322H1046.92V921.322V927.322H1049.03V921.322ZM1046.92 921.322L1041.35 919.09L975.478 1083.53L981.048 1085.76L986.618 1087.99L1052.49 923.553L1046.92 921.322ZM981.048 1085.76V1079.76H945.501V1085.76V1091.76H981.048V1085.76ZM945.501 1085.76L951.074 1083.53L885.2 918.476L879.628 920.7L874.055 922.924L939.929 1087.98L945.501 1085.76ZM879.628 920.7V914.7H877.515V920.7V926.7H879.628V920.7ZM877.515 920.7H871.515V1087H877.515H883.515V920.7H877.515ZM877.515 1087V1081H825.313V1087V1093H877.515V1087ZM825.313 1087H831.313V832.455H825.313H819.313V1087H825.313ZM1198.08 832.455V826.455H1192.08V832.455H1198.08ZM1264.45 832.455L1270 830.179L1268.47 826.455H1264.45V832.455ZM1334.55 1003.48L1329 1005.75L1330.52 1009.48H1334.55V1003.48ZM1337.53 1003.48V1009.48H1341.55L1343.08 1005.75L1337.53 1003.48ZM1407.63 832.455V826.455H1403.6L1402.08 830.179L1407.63 832.455ZM1474 832.455H1480V826.455H1474V832.455ZM1474 1087V1093H1480V1087H1474ZM1421.8 1087H1415.8V1093H1421.8V1087ZM1421.8 921.322H1427.8V915.322H1421.8V921.322ZM1419.69 921.322V915.322H1415.63L1414.12 919.09L1419.69 921.322ZM1353.81 1085.76V1091.76H1357.87L1359.38 1087.99L1353.81 1085.76ZM1318.26 1085.76L1312.69 1087.98L1314.2 1091.76H1318.26V1085.76ZM1252.39 920.7L1257.96 918.476L1256.46 914.7H1252.39V920.7ZM1250.28 920.7V914.7H1244.28V920.7H1250.28ZM1250.28 1087V1093H1256.28V1087H1250.28ZM1198.08 1087H1192.08V1093H1198.08V1087ZM1198.08 832.455V838.455H1264.45V832.455V826.455H1198.08V832.455ZM1264.45 832.455L1258.9 834.73L1329 1005.75L1334.55 1003.48L1340.1 1001.2L1270 830.179L1264.45 832.455ZM1334.55 1003.48V1009.48H1337.53V1003.48V997.477H1334.55V1003.48ZM1337.53 1003.48L1343.08 1005.75L1413.18 834.73L1407.63 832.455L1402.08 830.179L1331.98 1001.2L1337.53 1003.48ZM1407.63 832.455V838.455H1474V832.455V826.455H1407.63V832.455ZM1474 832.455H1468V1087H1474H1480V832.455H1474ZM1474 1087V1081H1421.8V1087V1093H1474V1087ZM1421.8 1087H1427.8V921.322H1421.8H1415.8V1087H1421.8ZM1421.8 921.322V915.322H1419.69V921.322V927.322H1421.8V921.322ZM1419.69 921.322L1414.12 919.09L1348.24 1083.53L1353.81 1085.76L1359.38 1087.99L1425.26 923.553L1419.69 921.322ZM1353.81 1085.76V1079.76H1318.26V1085.76V1091.76H1353.81V1085.76ZM1318.26 1085.76L1323.84 1083.53L1257.96 918.476L1252.39 920.7L1246.82 922.924L1312.69 1087.98L1318.26 1085.76ZM1252.39 920.7V914.7H1250.28V920.7V926.7H1252.39V920.7ZM1250.28 920.7H1244.28V1087H1250.28H1256.28V920.7H1250.28ZM1250.28 1087V1081H1198.08V1087V1093H1250.28V1087ZM1198.08 1087H1204.08V832.455H1198.08H1192.08V1087H1198.08ZM1614.71 1087V1093H1619.07L1620.42 1088.86L1614.71 1087ZM1557.04 1087L1551.37 1085.04L1548.63 1093H1557.04V1087ZM1644.92 832.455V826.455H1640.64L1639.25 830.497L1644.92 832.455ZM1714.27 832.455L1719.94 830.499L1718.55 826.455H1714.27V832.455ZM1802.02 1087V1093H1810.43L1807.69 1085.04L1802.02 1087ZM1744.35 1087L1738.64 1088.85L1739.99 1093H1744.35V1087ZM1680.59 890.622L1686.29 888.769L1684.95 884.622H1680.59V890.622ZM1678.6 890.622V884.622H1674.24L1672.89 888.766L1678.6 890.622ZM1611.11 986.947V980.947H1605.11V986.947H1611.11ZM1747.33 986.947H1753.33V980.947H1747.33V986.947ZM1747.33 1028.96V1034.96H1753.33V1028.96H1747.33ZM1611.11 1028.96H1605.11V1034.96H1611.11V1028.96ZM1614.71 1087V1081H1557.04V1087V1093H1614.71V1087ZM1557.04 1087L1562.72 1088.96L1650.59 834.412L1644.92 832.455L1639.25 830.497L1551.37 1085.04L1557.04 1087ZM1644.92 832.455V838.455H1714.27V832.455V826.455H1644.92V832.455ZM1714.27 832.455L1708.6 834.41L1796.35 1088.96L1802.02 1087L1807.69 1085.04L1719.94 830.499L1714.27 832.455ZM1802.02 1087V1081H1744.35V1087V1093H1802.02V1087ZM1744.35 1087L1750.06 1085.15L1686.29 888.769L1680.59 890.622L1674.88 892.475L1738.64 1088.85L1744.35 1087ZM1680.59 890.622V884.622H1678.6V890.622V896.622H1680.59V890.622ZM1678.6 890.622L1672.89 888.766L1609.01 1085.14L1614.71 1087L1620.42 1088.86L1684.31 892.478L1678.6 890.622ZM1611.11 986.947V992.947H1747.33V986.947V980.947H1611.11V986.947ZM1747.33 986.947H1741.33V1028.96H1747.33H1753.33V986.947H1747.33ZM1747.33 1028.96V1022.96H1611.11V1028.96V1034.96H1747.33V1028.96ZM1611.11 1028.96H1617.11V986.947H1611.11H1605.11V1028.96H1611.11Z" fill="black"/>
</g>
</g>
</g>
<g id="Group_2">
<path id="NAMMA_2" d="M414.032 832.455V1087H367.548L256.805 926.79H254.941V1087H201.124V832.455H248.354L358.226 992.54H360.463V832.455H414.032ZM554.871 1087H497.2L585.073 832.455H654.427L742.176 1087H684.505L620.745 890.622H618.756L554.871 1087ZM551.267 986.947H687.488V1028.96H551.267V986.947ZM825.313 832.455H891.684L961.783 1003.48H964.766L1034.87 832.455H1101.24V1087H1049.03V921.322H1046.92L981.048 1085.76H945.501L879.628 920.7H877.515V1087H825.313V832.455ZM1198.08 832.455H1264.45L1334.55 1003.48H1337.53L1407.63 832.455H1474V1087H1421.8V921.322H1419.69L1353.81 1085.76H1318.26L1252.39 920.7H1250.28V1087H1198.08V832.455ZM1614.71 1087H1557.04L1644.92 832.455H1714.27L1802.02 1087H1744.35L1680.59 890.622H1678.6L1614.71 1087ZM1611.11 986.947H1747.33V1028.96H1611.11V986.947Z" fill="#FEFEFE"/>
</g>
<g id="X">
<path id="Vector 1" d="M1 492.362L253.947 748H451.46L201.205 492.362L490.748 201.743L999.87 706.56L1508.99 201.743L1800.69 493.439L1548.28 748H1749.02L1999.28 493.439L1508.99 2.61455L999.87 509.046L490.748 1L1 492.362Z" fill="#03EEF2" stroke="#07E0E6"/>
<path id="Vector 2" d="M1 1436.64L253.947 1181H451.46L201.205 1436.64L490.748 1727.26L999.87 1222.44L1508.99 1727.26L1800.69 1435.56L1548.28 1181H1749.02L1999.28 1435.56L1508.99 1926.39L999.87 1419.95L490.748 1928L1 1436.64Z" fill="#03EEF2" stroke="#07E0E6"/>
</g>
</g>
<defs>
<clipPath id="clip0_0_1">
<rect width="2000" height="1929" fill="white"/>
</clipPath>
</defs>
</svg>
