<svg width="1616" height="267" viewBox="0 0 1616 267" fill="none" xmlns="http://www.w3.org/2000/svg">
<rect width="1616" height="267" fill="#1E1E1E"/>
<g id="NAMMA">
<mask id="path-1-outside-1_0_1" maskUnits="userSpaceOnUse" x="0" y="0" width="1616" height="267" fill="black">
<rect fill="white" width="1616" height="267"/>
<path d="M219.032 6.45454V261H172.548L61.8054 100.79H59.9411V261H6.12358V6.45454H53.3537L163.226 166.54H165.463V6.45454H219.032ZM359.871 261H302.2L390.073 6.45454H459.427L547.176 261H489.505L425.745 64.6222H423.756L359.871 261ZM356.267 160.947H492.488V202.957H356.267V160.947ZM630.313 6.45454H696.684L766.783 177.477H769.766L839.866 6.45454H906.236V261H854.035V95.3217H851.922L786.048 259.757H750.501L684.628 94.7003H682.515V261H630.313V6.45454ZM1003.08 6.45454H1069.45L1139.55 177.477H1142.53L1212.63 6.45454H1279V261H1226.8V95.3217H1224.69L1158.81 259.757H1123.26L1057.39 94.7003H1055.28V261H1003.08V6.45454ZM1419.71 261H1362.04L1449.92 6.45454H1519.27L1607.02 261H1549.35L1485.59 64.6222H1483.6L1419.71 261ZM1416.11 160.947H1552.33V202.957H1416.11V160.947Z"/>
</mask>
<path d="M219.032 6.45454H225.032V0.454536H219.032V6.45454ZM219.032 261V267H225.032V261H219.032ZM172.548 261L167.612 264.412L169.401 267H172.548V261ZM61.8054 100.79L66.741 97.3788L64.9519 94.7905H61.8054V100.79ZM59.9411 100.79V94.7905H53.9411V100.79H59.9411ZM59.9411 261V267H65.9411V261H59.9411ZM6.12358 261H0.123579V267H6.12358V261ZM6.12358 6.45454V0.454536H0.123579V6.45454H6.12358ZM53.3537 6.45454L58.3006 3.05928L56.5129 0.454536H53.3537V6.45454ZM163.226 166.54L158.279 169.935L160.067 172.54H163.226V166.54ZM165.463 166.54V172.54H171.463V166.54H165.463ZM165.463 6.45454V0.454536H159.463V6.45454H165.463ZM219.032 6.45454H213.032V261H219.032H225.032V6.45454H219.032ZM219.032 261V255H172.548V261V267H219.032V261ZM172.548 261L177.483 257.588L66.741 97.3788L61.8054 100.79L56.8698 104.202L167.612 264.412L172.548 261ZM61.8054 100.79V94.7905H59.9411V100.79V106.79H61.8054V100.79ZM59.9411 100.79H53.9411V261H59.9411H65.9411V100.79H59.9411ZM59.9411 261V255H6.12358V261V267H59.9411V261ZM6.12358 261H12.1236V6.45454H6.12358H0.123579V261H6.12358ZM6.12358 6.45454V12.4545H53.3537V6.45454V0.454536H6.12358V6.45454ZM53.3537 6.45454L48.4068 9.8498L158.279 169.935L163.226 166.54L168.173 163.145L58.3006 3.05928L53.3537 6.45454ZM163.226 166.54V172.54H165.463V166.54V160.54H163.226V166.54ZM165.463 166.54H171.463V6.45454H165.463H159.463V166.54H165.463ZM165.463 6.45454V12.4545H219.032V6.45454V0.454536H165.463V6.45454ZM359.871 261V267H364.229L365.577 262.856L359.871 261ZM302.2 261L296.529 259.042L293.782 267H302.2V261ZM390.073 6.45454V0.454536H385.797L384.402 4.49663L390.073 6.45454ZM459.427 6.45454L465.099 4.49911L463.705 0.454536H459.427V6.45454ZM547.176 261V267H555.59L552.848 259.045L547.176 261ZM489.505 261L483.798 262.853L485.145 267H489.505V261ZM425.745 64.6221L431.451 62.7693L430.105 58.6221H425.745V64.6221ZM423.756 64.6221V58.6221H419.398L418.05 62.766L423.756 64.6221ZM356.267 160.947V154.947H350.267V160.947H356.267ZM492.488 160.947H498.488V154.947H492.488V160.947ZM492.488 202.957V208.957H498.488V202.957H492.488ZM356.267 202.957H350.267V208.957H356.267V202.957ZM359.871 261V255H302.2V261V267H359.871V261ZM302.2 261L307.872 262.958L395.745 8.41245L390.073 6.45454L384.402 4.49663L296.529 259.042L302.2 261ZM390.073 6.45454V12.4545H459.427V6.45454V0.454536H390.073V6.45454ZM459.427 6.45454L453.755 8.40997L541.503 262.955L547.176 261L552.848 259.045L465.099 4.49911L459.427 6.45454ZM547.176 261V255H489.505V261V267H547.176V261ZM489.505 261L495.212 259.147L431.451 62.7693L425.745 64.6221L420.038 66.475L483.798 262.853L489.505 261ZM425.745 64.6221V58.6221H423.756V64.6221V70.6221H425.745V64.6221ZM423.756 64.6221L418.05 62.766L354.165 259.144L359.871 261L365.577 262.856L429.462 66.4783L423.756 64.6221ZM356.267 160.947V166.947H492.488V160.947V154.947H356.267V160.947ZM492.488 160.947H486.488V202.957H492.488H498.488V160.947H492.488ZM492.488 202.957V196.957H356.267V202.957V208.957H492.488V202.957ZM356.267 202.957H362.267V160.947H356.267H350.267V202.957H356.267ZM630.313 6.45454V0.454536H624.313V6.45454H630.313ZM696.684 6.45454L702.236 4.17897L700.709 0.454536H696.684V6.45454ZM766.783 177.477L761.231 179.753L762.758 183.477H766.783V177.477ZM769.766 177.477V183.477H773.791L775.318 179.753L769.766 177.477ZM839.866 6.45454V0.454536H835.84L834.314 4.17897L839.866 6.45454ZM906.236 6.45454H912.236V0.454536H906.236V6.45454ZM906.236 261V267H912.236V261H906.236ZM854.035 261H848.035V267H854.035V261ZM854.035 95.3217H860.035V89.3217H854.035V95.3217ZM851.922 95.3217V89.3217H847.862L846.352 93.0905L851.922 95.3217ZM786.048 259.757V265.757H790.108L791.618 261.988L786.048 259.757ZM750.501 259.757L744.929 261.981L746.436 265.757H750.501V259.757ZM684.628 94.7003L690.2 92.4763L688.693 88.7003H684.628V94.7003ZM682.515 94.7003V88.7003H676.515V94.7003H682.515ZM682.515 261V267H688.515V261H682.515ZM630.313 261H624.313V267H630.313V261ZM630.313 6.45454V12.4545H696.684V6.45454V0.454536H630.313V6.45454ZM696.684 6.45454L691.132 8.7301L761.231 179.753L766.783 177.477L772.335 175.202L702.236 4.17897L696.684 6.45454ZM766.783 177.477V183.477H769.766V177.477V171.477H766.783V177.477ZM769.766 177.477L775.318 179.753L845.417 8.7301L839.866 6.45454L834.314 4.17897L764.214 175.202L769.766 177.477ZM839.866 6.45454V12.4545H906.236V6.45454V0.454536H839.866V6.45454ZM906.236 6.45454H900.236V261H906.236H912.236V6.45454H906.236ZM906.236 261V255H854.035V261V267H906.236V261ZM854.035 261H860.035V95.3217H854.035H848.035V261H854.035ZM854.035 95.3217V89.3217H851.922V95.3217V101.322H854.035V95.3217ZM851.922 95.3217L846.352 93.0905L780.478 257.526L786.048 259.757L791.618 261.988L857.491 97.553L851.922 95.3217ZM786.048 259.757V253.757H750.501V259.757V265.757H786.048V259.757ZM750.501 259.757L756.074 257.533L690.2 92.4763L684.628 94.7003L679.055 96.9243L744.929 261.981L750.501 259.757ZM684.628 94.7003V88.7003H682.515V94.7003V100.7H684.628V94.7003ZM682.515 94.7003H676.515V261H682.515H688.515V94.7003H682.515ZM682.515 261V255H630.313V261V267H682.515V261ZM630.313 261H636.313V6.45454H630.313H624.313V261H630.313ZM1003.08 6.45454V0.454536H997.077V6.45454H1003.08ZM1069.45 6.45454L1075 4.17897L1073.47 0.454536H1069.45V6.45454ZM1139.55 177.477L1134 179.753L1135.52 183.477H1139.55V177.477ZM1142.53 177.477V183.477H1146.55L1148.08 179.753L1142.53 177.477ZM1212.63 6.45454V0.454536H1208.6L1207.08 4.17897L1212.63 6.45454ZM1279 6.45454H1285V0.454536H1279V6.45454ZM1279 261V267H1285V261H1279ZM1226.8 261H1220.8V267H1226.8V261ZM1226.8 95.3217H1232.8V89.3217H1226.8V95.3217ZM1224.69 95.3217V89.3217H1220.63L1219.12 93.0905L1224.69 95.3217ZM1158.81 259.757V265.757H1162.87L1164.38 261.988L1158.81 259.757ZM1123.26 259.757L1117.69 261.981L1119.2 265.757H1123.26V259.757ZM1057.39 94.7003L1062.96 92.4763L1061.46 88.7003H1057.39V94.7003ZM1055.28 94.7003V88.7003H1049.28V94.7003H1055.28ZM1055.28 261V267H1061.28V261H1055.28ZM1003.08 261H997.077V267H1003.08V261ZM1003.08 6.45454V12.4545H1069.45V6.45454V0.454536H1003.08V6.45454ZM1069.45 6.45454L1063.9 8.7301L1134 179.753L1139.55 177.477L1145.1 175.202L1075 4.17897L1069.45 6.45454ZM1139.55 177.477V183.477H1142.53V177.477V171.477H1139.55V177.477ZM1142.53 177.477L1148.08 179.753L1218.18 8.7301L1212.63 6.45454L1207.08 4.17897L1136.98 175.202L1142.53 177.477ZM1212.63 6.45454V12.4545H1279V6.45454V0.454536H1212.63V6.45454ZM1279 6.45454H1273V261H1279H1285V6.45454H1279ZM1279 261V255H1226.8V261V267H1279V261ZM1226.8 261H1232.8V95.3217H1226.8H1220.8V261H1226.8ZM1226.8 95.3217V89.3217H1224.69V95.3217V101.322H1226.8V95.3217ZM1224.69 95.3217L1219.12 93.0905L1153.24 257.526L1158.81 259.757L1164.38 261.988L1230.26 97.553L1224.69 95.3217ZM1158.81 259.757V253.757H1123.26V259.757V265.757H1158.81V259.757ZM1123.26 259.757L1128.84 257.533L1062.96 92.4763L1057.39 94.7003L1051.82 96.9243L1117.69 261.981L1123.26 259.757ZM1057.39 94.7003V88.7003H1055.28V94.7003V100.7H1057.39V94.7003ZM1055.28 94.7003H1049.28V261H1055.28H1061.28V94.7003H1055.28ZM1055.28 261V255H1003.08V261V267H1055.28V261ZM1003.08 261H1009.08V6.45454H1003.08H997.077V261H1003.08ZM1419.71 261V267H1424.07L1425.42 262.856L1419.71 261ZM1362.04 261L1356.37 259.042L1353.63 267H1362.04V261ZM1449.92 6.45454V0.454536H1445.64L1444.25 4.49663L1449.92 6.45454ZM1519.27 6.45454L1524.94 4.49911L1523.55 0.454536H1519.27V6.45454ZM1607.02 261V267H1615.43L1612.69 259.045L1607.02 261ZM1549.35 261L1543.64 262.853L1544.99 267H1549.35V261ZM1485.59 64.6221L1491.3 62.7693L1489.95 58.6221H1485.59V64.6221ZM1483.6 64.6221V58.6221H1479.24L1477.89 62.766L1483.6 64.6221ZM1416.11 160.947V154.947H1410.11V160.947H1416.11ZM1552.33 160.947H1558.33V154.947H1552.33V160.947ZM1552.33 202.957V208.957H1558.33V202.957H1552.33ZM1416.11 202.957H1410.11V208.957H1416.11V202.957ZM1419.71 261V255H1362.04V261V267H1419.71V261ZM1362.04 261L1367.72 262.958L1455.59 8.41245L1449.92 6.45454L1444.25 4.49663L1356.37 259.042L1362.04 261ZM1449.92 6.45454V12.4545H1519.27V6.45454V0.454536H1449.92V6.45454ZM1519.27 6.45454L1513.6 8.40997L1601.35 262.955L1607.02 261L1612.69 259.045L1524.94 4.49911L1519.27 6.45454ZM1607.02 261V255H1549.35V261V267H1607.02V261ZM1549.35 261L1555.06 259.147L1491.3 62.7693L1485.59 64.6221L1479.88 66.475L1543.64 262.853L1549.35 261ZM1485.59 64.6221V58.6221H1483.6V64.6221V70.6221H1485.59V64.6221ZM1483.6 64.6221L1477.89 62.766L1414.01 259.144L1419.71 261L1425.42 262.856L1489.31 66.4783L1483.6 64.6221ZM1416.11 160.947V166.947H1552.33V160.947V154.947H1416.11V160.947ZM1552.33 160.947H1546.33V202.957H1552.33H1558.33V160.947H1552.33ZM1552.33 202.957V196.957H1416.11V202.957V208.957H1552.33V202.957ZM1416.11 202.957H1422.11V160.947H1416.11H1410.11V202.957H1416.11Z" fill="black" mask="url(#path-1-outside-1_0_1)"/>
</g>
<g id="Mask group">
<mask id="mask0_0_1" style="mask-type:alpha" maskUnits="userSpaceOnUse" x="-16" y="-188" width="3272" height="510">
<path id="Vector" d="M417.396 -187.726C222.225 -190.749 136.119 -168.719 -16 -124.658V322H3256V-125.09L3217.73 -117.746C3097.69 -90 2962.6 -78.3103 2828.34 -84.0526C2714.49 -85.3485 2592.03 -108.675 2464.79 -132.865C2330.85 -158.352 2191.16 -184.702 2053.4 -187.294C1858.22 -191.181 1772.12 -169.151 1620 -125.09L1581.73 -117.746C1461.69 -90 1326.6 -78.3103 1192.34 -84.0526C1078.49 -85.3485 956.033 -108.675 828.788 -132.865C694.847 -158.352 555.165 -184.702 417.396 -187.294V-187.726Z" fill="black"/>
</mask>
<g mask="url(#mask0_0_1)">
<path id="NAMMA_2" d="M219.032 6.45454V261H172.548L61.8054 100.79H59.9411V261H6.12358V6.45454H53.3537L163.226 166.54H165.463V6.45454H219.032ZM359.871 261H302.2L390.073 6.45454H459.427L547.176 261H489.505L425.745 64.6222H423.756L359.871 261ZM356.267 160.947H492.488V202.957H356.267V160.947ZM630.313 6.45454H696.684L766.783 177.477H769.766L839.866 6.45454H906.236V261H854.035V95.3217H851.922L786.048 259.757H750.501L684.628 94.7003H682.515V261H630.313V6.45454ZM1003.08 6.45454H1069.45L1139.55 177.477H1142.53L1212.63 6.45454H1279V261H1226.8V95.3217H1224.69L1158.81 259.757H1123.26L1057.39 94.7003H1055.28V261H1003.08V6.45454ZM1419.71 261H1362.04L1449.92 6.45454H1519.27L1607.02 261H1549.35L1485.59 64.6222H1483.6L1419.71 261ZM1416.11 160.947H1552.33V202.957H1416.11V160.947Z" fill="white"/>
</g>
</g>
</svg>
